<svg width="64" height="64" viewBox="0 0 64 64" fill="none" xmlns="http://www.w3.org/2000/svg">
<rect x="1" y="63" width="62" height="62" rx="31" transform="rotate(-90 1 63)" stroke="white" stroke-width="2"/>
<path fill-rule="evenodd" clip-rule="evenodd" d="M34.0909 28.2652C34.4968 27.8906 35.1294 27.9159 35.504 28.3217L38.7348 31.8217C39.0884 32.2047 39.0884 32.7952 38.7348 33.1782L35.504 36.6783C35.1294 37.0841 34.4968 37.1094 34.091 36.7348C33.6851 36.3602 33.6598 35.7276 34.0344 35.3217L35.716 33.5L26 33.5C25.4477 33.5 25 33.0523 25 32.5C25 31.9477 25.4477 31.5 26 31.5L35.716 31.5L34.0344 29.6783C33.6598 29.2725 33.6851 28.6398 34.0909 28.2652Z" fill="white"/>
</svg>
